<svg width="33" height="32" viewBox="0 0 33 32" fill="none" xmlns="http://www.w3.org/2000/svg">
<g clip-path="url(#clip0_5037_4893)">
<path d="M15.7512 0H10.458C9.90572 0 9.45801 0.447716 9.45801 1V8.59965C9.45801 9.15194 9.90572 9.59965 10.458 9.59965H15.7512C16.3035 9.59965 16.7512 9.15193 16.7512 8.59965V1C16.7512 0.447715 16.3035 0 15.7512 0Z" fill="#74C4FC"/>
<path d="M23.6033 11.5342H10.4961C9.94381 11.5342 9.49609 11.9819 9.49609 12.5342V20.1321C9.49609 20.6844 9.94381 21.1321 10.4961 21.1321H23.6033C24.1556 21.1321 24.6033 20.6844 24.6033 20.1321V12.5342C24.6033 11.9819 24.1556 11.5342 23.6033 11.5342Z" fill="#4A8CF3"/>
<path d="M31.8006 22.874H10.5293C9.97701 22.874 9.5293 23.3217 9.5293 23.874V30.9999C9.5293 31.5521 9.97701 31.9999 10.5293 31.9999H31.8006C32.3529 31.9999 32.8006 31.5522 32.8006 30.9999V23.874C32.8006 23.3217 32.3529 22.874 31.8006 22.874Z" fill="#2F5DC4"/>
<path d="M6.3319 11.5342H1C0.447715 11.5342 0 11.9819 0 12.5342V20.1286C0 20.6809 0.447716 21.1286 1 21.1286H6.3319C6.88418 21.1286 7.3319 20.6809 7.3319 20.1286V12.5342C7.3319 11.9819 6.88418 11.5342 6.3319 11.5342Z" fill="#2F5DC4"/>
</g>
<defs>
<clipPath id="clip0_5037_4893">
<rect width="32.8" height="32" fill="white"/>
</clipPath>
</defs>
</svg>
